<svg width="182" height="49" viewBox="0 0 182 49" fill="none" xmlns="http://www.w3.org/2000/svg">
<g filter="url(#filter0_d_115_14)">
<path d="M47.3055 33.432C45.8655 33.432 44.763 32.973 43.998 32.055C43.242 31.137 42.9765 29.931 43.2015 28.437L43.3095 27.762H45.3345L45.2265 28.437C45.1005 29.319 45.249 30.0345 45.672 30.5835C46.104 31.1325 46.7385 31.407 47.5755 31.407C48.4125 31.407 49.119 31.137 49.695 30.597C50.28 30.048 50.6355 29.328 50.7615 28.437L50.9775 26.925C51.0495 26.412 51.0855 26.0115 51.0855 25.7235C51.0945 25.4355 51.0315 25.206 50.8965 25.035C50.7615 24.855 50.514 24.6885 50.154 24.5355C49.794 24.3825 49.2855 24.189 48.6285 23.955C47.4585 23.541 46.5585 23.2035 45.9285 22.9425C45.3075 22.6725 44.88 22.3935 44.646 22.1055C44.412 21.8085 44.304 21.4215 44.322 20.9445C44.34 20.4585 44.412 19.797 44.538 18.96L44.7675 17.313C44.9115 16.314 45.2355 15.441 45.7395 14.694C46.2435 13.938 46.878 13.353 47.643 12.939C48.417 12.525 49.281 12.318 50.235 12.318C51.675 12.318 52.7775 12.777 53.5425 13.695C54.3075 14.604 54.5775 15.81 54.3525 17.313L54.258 17.988H52.233L52.3275 17.313C52.4625 16.413 52.3095 15.693 51.8685 15.153C51.4275 14.613 50.7975 14.343 49.9785 14.343C49.1505 14.343 48.444 14.6175 47.859 15.1665C47.274 15.7065 46.9185 16.422 46.7925 17.313L46.563 18.96C46.482 19.473 46.437 19.8735 46.428 20.1615C46.428 20.4405 46.4955 20.67 46.6305 20.85C46.7745 21.021 47.0265 21.183 47.3865 21.336C47.7465 21.489 48.255 21.687 48.912 21.93C50.082 22.344 50.9775 22.686 51.5985 22.956C52.2195 23.217 52.647 23.496 52.881 23.793C53.115 24.09 53.223 24.477 53.205 24.954C53.196 25.431 53.1285 26.088 53.0025 26.925L52.7865 28.437C52.5705 29.931 51.963 31.137 50.964 32.055C49.974 32.973 48.7545 33.432 47.3055 33.432ZM55.6264 33L58.4614 12.75H60.4189L59.3659 20.2695L59.0959 19.851C59.5099 19.266 60.0229 18.8115 60.6349 18.4875C61.2469 18.1635 61.9264 18.0015 62.6734 18.0015C63.4834 18.0015 64.1674 18.1815 64.7254 18.5415C65.2924 18.9015 65.7019 19.4145 65.9539 20.0805C66.2059 20.7465 66.2689 21.5475 66.1429 22.4835L64.6714 33H62.7139L64.1584 22.686C64.2664 21.858 64.1224 21.1965 63.7264 20.7015C63.3304 20.2065 62.7589 19.959 62.0119 19.959C61.2289 19.959 60.5629 20.2065 60.0139 20.7015C59.4649 21.1965 59.1364 21.858 59.0284 22.686L57.5839 33H55.6264ZM68.3353 33L70.4008 18.3525H72.3583L70.2928 33H68.3353ZM70.6168 16.719L71.0623 13.56H73.0198L72.5743 16.719H70.6168ZM73.4611 37.86L76.2016 18.3525H78.1591L77.8756 20.256L77.6056 19.8105C78.0286 19.2345 78.5371 18.7935 79.1311 18.4875C79.7341 18.1725 80.4136 18.015 81.1696 18.015C81.9886 18.015 82.6906 18.1995 83.2756 18.5685C83.8696 18.9375 84.3016 19.473 84.5716 20.175C84.8506 20.868 84.9226 21.7095 84.7876 22.6995L83.9641 28.626C83.8291 29.643 83.5186 30.5025 83.0326 31.2045C82.5556 31.9065 81.9661 32.4375 81.2641 32.7975C80.5621 33.1485 79.8151 33.324 79.0231 33.324C78.2581 33.324 77.6236 33.171 77.1196 32.865C76.6156 32.55 76.2376 32.1045 75.9856 31.5285L76.3636 31.0965L75.4186 37.86H73.4611ZM78.9421 31.3665C79.7791 31.3665 80.4676 31.1145 81.0076 30.6105C81.5566 30.1065 81.8896 29.445 82.0066 28.626L82.8301 22.6995C82.9381 21.8805 82.7896 21.2235 82.3846 20.7285C81.9796 20.2245 81.3631 19.9725 80.5351 19.9725C79.6891 19.9725 79.0051 20.229 78.4831 20.742C77.9611 21.246 77.6461 21.8985 77.5381 22.6995L76.7146 28.6395C76.6066 29.4315 76.7371 30.084 77.1061 30.597C77.4751 31.11 78.0871 31.3665 78.9421 31.3665ZM92.7305 33H89.6851C89.606 33 89.5664 32.9561 89.5664 32.8682V17.4697H86.0596C85.9717 17.4697 85.9277 17.4258 85.9277 17.3379L85.9541 14.3188C85.9541 14.2485 85.9893 14.2134 86.0596 14.2134H96.3164C96.4131 14.2134 96.4614 14.2485 96.4614 14.3188V17.3379C96.4614 17.4258 96.4263 17.4697 96.356 17.4697H92.8096L92.8359 32.8682C92.8359 32.9561 92.8008 33 92.7305 33ZM100.944 33H97.8853C97.8149 33 97.7798 32.9561 97.7798 32.8682L97.8325 14.3188C97.8325 14.2485 97.8677 14.2134 97.938 14.2134H103.396C104.372 14.2134 105.268 14.4507 106.085 14.9253C106.903 15.3999 107.553 16.0371 108.037 16.8369C108.529 17.6367 108.775 18.542 108.775 19.5527C108.775 20.2119 108.674 20.8096 108.472 21.3457C108.27 21.8818 108.032 22.3345 107.76 22.7036C107.496 23.0728 107.254 23.3452 107.035 23.521C108.01 24.6021 108.498 25.8721 108.498 27.3311L108.524 32.8682C108.524 32.9561 108.48 33 108.393 33H105.334C105.264 33 105.229 32.9736 105.229 32.9209V27.3311C105.229 26.6807 105 26.1182 104.543 25.6436C104.086 25.1689 103.523 24.9316 102.855 24.9316H101.076L101.049 32.8682C101.049 32.9561 101.014 33 100.944 33ZM103.396 17.4434H101.076V21.6885H103.396C103.95 21.6885 104.442 21.4819 104.873 21.0688C105.312 20.6558 105.532 20.1504 105.532 19.5527C105.532 18.9814 105.321 18.4893 104.899 18.0762C104.477 17.6543 103.976 17.4434 103.396 17.4434ZM109.342 32.8682L112.69 14.3188C112.708 14.2485 112.752 14.2134 112.822 14.2134H116.738C116.808 14.2134 116.852 14.2485 116.87 14.3188L120.086 32.8682C120.095 32.9561 120.06 33 119.981 33H116.988C116.9 33 116.852 32.9561 116.843 32.8682L116.553 30.8906H112.875L112.585 32.8682C112.576 32.9561 112.532 33 112.453 33H109.447C109.377 33 109.342 32.9561 109.342 32.8682ZM114.628 20.4229L113.416 28.0034H116.013L114.905 20.4229L114.747 19.4209L114.628 20.4229ZM124.938 33H121.879C121.809 33 121.774 32.9561 121.774 32.8682L121.827 14.3452C121.827 14.2573 121.862 14.2134 121.932 14.2134H124.964C125.035 14.2134 125.07 14.2573 125.07 14.3452V20.7393L129.302 14.3188C129.372 14.2485 129.438 14.2134 129.5 14.2134H132.598C132.677 14.2134 132.694 14.2485 132.65 14.3188L127.983 21.7676L133.217 32.8945C133.261 32.9648 133.217 33 133.085 33H129.79C129.702 33 129.649 32.9648 129.631 32.8945L125.979 24.958L125.043 26.4346V32.8682C125.043 32.9561 125.008 33 124.938 33Z" fill="white"/>
<path d="M144.608 33H141.576C141.488 33 141.444 32.9561 141.444 32.8682L141.497 14.3188C141.497 14.2485 141.532 14.2134 141.602 14.2134H146.796C148.449 14.2134 149.754 14.7188 150.712 15.7295C151.679 16.7314 152.162 18.0981 152.162 19.8296C152.162 21.0952 151.912 22.1982 151.411 23.1387C150.901 24.0703 150.242 24.791 149.433 25.3008C148.625 25.8105 147.746 26.0654 146.796 26.0654H144.74V32.8682C144.74 32.9561 144.696 33 144.608 33ZM146.796 17.417L144.74 17.4434V22.7959H146.796C147.368 22.7959 147.864 22.5234 148.286 21.9785C148.708 21.4248 148.919 20.7085 148.919 19.8296C148.919 19.1265 148.73 18.5508 148.352 18.1025C147.974 17.6455 147.456 17.417 146.796 17.417ZM156.948 33H153.889C153.819 33 153.784 32.9561 153.784 32.8682L153.836 14.3188C153.836 14.2485 153.872 14.2134 153.942 14.2134H159.4C160.375 14.2134 161.272 14.4507 162.089 14.9253C162.907 15.3999 163.557 16.0371 164.041 16.8369C164.533 17.6367 164.779 18.542 164.779 19.5527C164.779 20.2119 164.678 20.8096 164.476 21.3457C164.273 21.8818 164.036 22.3345 163.764 22.7036C163.5 23.0728 163.258 23.3452 163.039 23.521C164.014 24.6021 164.502 25.8721 164.502 27.3311L164.528 32.8682C164.528 32.9561 164.484 33 164.396 33H161.338C161.268 33 161.232 32.9736 161.232 32.9209V27.3311C161.232 26.6807 161.004 26.1182 160.547 25.6436C160.09 25.1689 159.527 24.9316 158.859 24.9316H157.08L157.053 32.8682C157.053 32.9561 157.018 33 156.948 33ZM159.4 17.4434H157.08V21.6885H159.4C159.954 21.6885 160.446 21.4819 160.876 21.0688C161.316 20.6558 161.536 20.1504 161.536 19.5527C161.536 18.9814 161.325 18.4893 160.903 18.0762C160.481 17.6543 159.98 17.4434 159.4 17.4434ZM171.806 33.2637C170.848 33.2637 169.964 33.0176 169.156 32.5254C168.356 32.0332 167.71 31.3784 167.218 30.561C166.734 29.7349 166.493 28.8296 166.493 27.8452L166.519 19.2891C166.519 18.2871 166.761 17.3862 167.244 16.5864C167.719 15.7778 168.36 15.1318 169.169 14.6484C169.978 14.1563 170.856 13.9102 171.806 13.9102C172.79 13.9102 173.673 14.1519 174.456 14.6353C175.247 15.1187 175.879 15.769 176.354 16.5864C176.837 17.395 177.079 18.2959 177.079 19.2891L177.105 27.8452C177.105 28.8296 176.868 29.7305 176.394 30.5479C175.91 31.374 175.269 32.0332 174.469 32.5254C173.669 33.0176 172.781 33.2637 171.806 33.2637ZM171.806 30.0073C172.351 30.0073 172.825 29.7876 173.229 29.3481C173.634 28.8999 173.836 28.3989 173.836 27.8452L173.81 19.2891C173.81 18.6914 173.621 18.186 173.243 17.7729C172.865 17.3599 172.386 17.1533 171.806 17.1533C171.252 17.1533 170.777 17.3555 170.382 17.7598C169.986 18.1641 169.789 18.6738 169.789 19.2891V27.8452C169.789 28.4341 169.986 28.9438 170.382 29.3745C170.777 29.7964 171.252 30.0073 171.806 30.0073Z" fill="#EAEAEA"/>
</g>
<circle cx="15.869" cy="22.869" r="15.869" fill="#FFCE00"/>
<rect x="12.207" y="10.3804" width="7.23026" height="7.23026" fill="black"/>
<rect x="19.4373" y="17.6106" width="7.23026" height="7.23026" fill="black"/>
<rect x="4.97656" y="17.6106" width="7.23026" height="7.23026" fill="black"/>
<path d="M15.8221 35.7332L4.96594 24.7469L26.6782 24.7469L15.8221 35.7332Z" fill="black"/>
<defs>
<filter id="filter0_d_115_14" x="38.864" y="9.31812" width="142.241" height="33.542" filterUnits="userSpaceOnUse" color-interpolation-filters="sRGB">
<feFlood flood-opacity="0" result="BackgroundImageFix"/>
<feColorMatrix in="SourceAlpha" type="matrix" values="0 0 0 0 0 0 0 0 0 0 0 0 0 0 0 0 0 0 127 0" result="hardAlpha"/>
<feOffset dy="1"/>
<feGaussianBlur stdDeviation="2"/>
<feComposite in2="hardAlpha" operator="out"/>
<feColorMatrix type="matrix" values="0 0 0 0 0 0 0 0 0 0 0 0 0 0 0 0 0 0 0.16 0"/>
<feBlend mode="normal" in2="BackgroundImageFix" result="effect1_dropShadow_115_14"/>
<feBlend mode="normal" in="SourceGraphic" in2="effect1_dropShadow_115_14" result="shape"/>
</filter>
</defs>
</svg>
