<svg id="Layer_1" data-name="Layer 1" xmlns="http://www.w3.org/2000/svg" viewBox="0 0 28.68 28.68">
<defs>
<style>.cls-1,.cls-3{fill:none;}.cls-1,.cls-2,.cls-3{stroke:#000000;stroke-miterlimit:10;stroke-width:1.25px;}.cls-2{fill:#fff;}.cls-3{stroke-linecap:round;}</style></defs>
<title>all_icons</title>
<g id="Group_207" data-name="Group 207">
<path id="Path_250" data-name="Path 250" class="cls-1" d="M7.14,23.34V10.58a.92.92,0,0,1,.91-.92h7.57a.92.92,0,0,1,.92.92h0V23.34a.27.27,0,0,1-.27.27.28.28,0,0,1-.18-.06l-4-3.42a.38.38,0,0,0-.49,0l-4,3.41a.26.26,0,0,1-.44-.2Z"></path>
<circle id="Ellipse_88" data-name="Ellipse 88" class="cls-2" cx="16.53" cy="10.08" r="5.01"></circle>
<g id="Group_206" data-name="Group 206">
<line id="Line_26" data-name="Line 26" class="cls-3" x1="16.54" y1="7.75" x2="16.54" y2="12.15"></line>
<line id="Line_27" data-name="Line 27" class="cls-3" x1="18.73" y1="9.95" x2="14.34" y2="9.95"></line></g></g></svg>