<svg xmlns="http://www.w3.org/2000/svg" width="17.01" height="17.01" viewBox="0 0 17.01 17.01"><defs><style>.a{fill:#6e6e6e;fill-rule:evenodd;}</style></defs><path class="a" d="M15.862,0H1.149A1.147,1.147,0,0,0,0,1.138V15.872a1.147,1.147,0,0,0,1.149,1.138H15.862a1.147,1.147,0,0,0,1.149-1.138V1.138A1.147,1.147,0,0,0,15.862,0ZM4.961,14.175H2.126v-7.8H4.961ZM3.544,5.225a1.448,1.448,0,0,1-1.5-1.392,1.448,1.448,0,0,1,1.5-1.392,1.448,1.448,0,0,1,1.5,1.392A1.448,1.448,0,0,1,3.544,5.225Zm11.34,8.95H12.049V9.923c0-1.314-.594-1.772-1.418-1.772-.729,0-1.418.614-1.418,1.772v4.253H6.379v-7.8H9.214V7.3a2.865,2.865,0,0,1,2.481-1.2c2.548,0,3.189,2.123,3.189,3.826Z"></path></svg>