<svg xmlns="http://www.w3.org/2000/svg" width="17.099" height="13.896" viewBox="0 0 17.099 13.896"><defs><style>.a{fill:#6e6e6e;}</style></defs><path class="a" d="M17.1,97.645a7.012,7.012,0,0,1-2.015.552,3.518,3.518,0,0,0,1.542-1.941,7.023,7.023,0,0,1-2.228.851,3.511,3.511,0,0,0-5.978,3.2,9.959,9.959,0,0,1-7.23-3.665,3.512,3.512,0,0,0,1.086,4.683,3.493,3.493,0,0,1-1.589-.439c0,.015,0,.029,0,.044a3.51,3.51,0,0,0,2.814,3.44,3.515,3.515,0,0,1-1.584.06,3.511,3.511,0,0,0,3.277,2.436,7.038,7.038,0,0,1-4.357,1.5A7.1,7.1,0,0,1,0,108.32,9.929,9.929,0,0,0,5.377,109.9a9.913,9.913,0,0,0,9.981-9.981q0-.228-.01-.454A7.127,7.127,0,0,0,17.1,97.645Z" transform="translate(0 -96)"></path></svg>