<svg xmlns="http://www.w3.org/2000/svg" width="40" height="40" viewBox="0 0 40 40">
  <g id="Group_114" data-name="Group 114" transform="translate(-166.5 -223.5)">
    <circle id="Ellipse_77" data-name="Ellipse 77" cx="19" cy="19" r="19" transform="translate(167.5 224.5)" fill="none" stroke="#343434" stroke-miterlimit="10" stroke-width="2"></circle>
    <g id="Group_113" data-name="Group 113" transform="translate(167.537 226.283)">
      <path id="Path_183" data-name="Path 183" d="M182.919,399.034c-5.58-2.923-4.385-4.65-4.385-5.979s-1.329-1.462-1.993-1.594c-.464-.093-3.062.915-4.59,1.532A19.027,19.027,0,0,0,186.5,406.88l0-.007C187.186,405.688,188.5,401.957,182.919,399.034Z" transform="translate(-171.396 -371.055)" fill="#343434"></path>
      <path id="Path_184" data-name="Path 184" d="M174.116,253.024c.531-.8,3.455-2.657,4.252-4.783s-1.01-5.088-1.015-5.1a19,19,0,0,0-9.578,15.358s5.146-1.493,6.341-2.688S173.585,253.822,174.116,253.024Z" transform="translate(-167.775 -242.451)" fill="#343434"></path>
      <path id="Path_185" data-name="Path 185" d="M297.379,237.919h0s2.719,6.455-2.33,6.721c-2.657,0-2.259,2.79-2.392,3.455-.094.47-.664,2.392-2.525,0s-2.392-1.594-2.657-.531-2.259,4.65-.93,7.175,1.329,1.86,1.993,2.524,1.86.8,2.923,2.657c.664,1.2,1.727.531,2.259.93a3.67,3.67,0,0,1,1.2,2.79c0,1.329.4,3.587,2.525,3.455s3.189-3.587,3.72-9.035,1.993-2.923,1.993-2.923,1.2,2.259,2.79,1.727a4.943,4.943,0,0,0,2.392-1.727A19,19,0,0,0,297.379,237.919Z" transform="translate(-270.372 -237.919)" fill="#343434"></path>
    </g>
  </g>
</svg>