<svg xmlns="http://www.w3.org/2000/svg" width="27.477" height="22.678" viewBox="0 0 27.477 22.678">
  
<g id="Group_21" data-name="Group 21" transform="translate(0.75 0.765)">
    
<path id="Path_83" data-name="Path 83" d="M409.294,314.772h-3.866a.413.413,0,0,0-.413.413v7.177a.413.413,0,0,0,.413.413h3.866a.415.415,0,0,1,.273.1l7.248,6.366a.413.413,0,0,0,.686-.31v-20.32a.413.413,0,0,0-.686-.31l-7.248,6.366A.415.415,0,0,1,409.294,314.772Z" transform="translate(-405.015 -308.2)" fill="none" stroke="#000000" stroke-miterlimit="10" stroke-width="1.5"></path>
    
<path id="Path_84" data-name="Path 84" d="M442.635,361.131" transform="translate(-427.064 -339.222)" fill="none" stroke="#000000" stroke-miterlimit="10" stroke-width="1.5"></path>
    
<path id="Path_85" data-name="Path 85" d="M444.222,329.591a9.992,9.992,0,0,0,0-19.978" transform="translate(-427.994 -309.028)" fill="none" stroke="#000000" stroke-miterlimit="10" stroke-width="1.5"></path>
    
<path id="Path_86" data-name="Path 86" d="M444.222,331.346a5.772,5.772,0,0,0,0-11.54" transform="translate(-427.994 -315.002)" fill="none" stroke="#000000" stroke-miterlimit="10" stroke-width="1.5"></path>
  </g>
</svg>