<svg id="Layer_1" data-name="Layer 1" xmlns="http://www.w3.org/2000/svg" viewBox="0 0 59.35 59.35">
<defs>
<style>.cls-1{fill:#f4f4f4;}.cls-2{fill:#000000;stroke-linecap:round;stroke-linejoin:round;}.cls-2,.cls-3{stroke:#000000;stroke-width:1.5px;}.cls-3{fill:none;stroke-miterlimit:10;}</style></defs>
<title>all_icons</title>
<circle id="Ellipse_7" data-name="Ellipse 7" class="cls-1" cx="29.67" cy="29.67" r="21.82"></circle>
<path id="Path_83" data-name="Path 83" class="cls-2" d="M20.7,26.75H16.83a.41.41,0,0,0-.41.42v7.17a.41.41,0,0,0,.41.42H20.7a.38.38,0,0,1,.27.1l7.25,6.36a.4.4,0,0,0,.58,0,.39.39,0,0,0,.11-.27V20.59a.41.41,0,0,0-.42-.41.45.45,0,0,0-.27.1L21,26.65A.43.43,0,0,1,20.7,26.75Z"></path>
<path id="Path_85" data-name="Path 85" class="cls-3" d="M32.65,40.74a10,10,0,0,0,0-20"></path>
<path id="Path_86" data-name="Path 86" class="cls-3" d="M32.65,36.52a5.77,5.77,0,0,0,0-11.54"></path></svg>