<svg xmlns="http://www.w3.org/2000/svg" width="470.41" height="333.527" viewBox="0 0 470.41 333.527">
  
<g id="Group_321" data-name="Group 321" transform="translate(-725 -968)">
    
<g id="Group_199" data-name="Group 199" transform="translate(0 110)">
      
<rect id="Rectangle_123" data-name="Rectangle 123" width="469" height="333.527" rx="45" transform="translate(725 858)" fill="#fff"></rect>
      
<rect id="Rectangle_126" data-name="Rectangle 126" width="470" height="150" transform="translate(725.411 858)" fill="#ef8050"></rect>
    </g>
    
<g id="Group_285" data-name="Group 285" transform="translate(-382.206 382.398)">
      
<path id="Path_255" data-name="Path 255" d="M1164.584,638.169l77.594-22.589a3.3,3.3,0,0,1,4.191,3.611L1235.33,700.5a3.3,3.3,0,0,1-5.451,2.03l-66.557-58.721A3.3,3.3,0,0,1,1164.584,638.169Z" transform="translate(0 0)" fill="#ffdbdb"></path>
      
<path id="Path_256" data-name="Path 256" d="M1235.325,687.675V659.739a4.165,4.165,0,0,1,4.165-4.165h0a20.728,20.728,0,0,0,2.59-.587l79.735-23.519a1.647,1.647,0,0,1,2.112,1.58v21.215a1.311,1.311,0,0,0,1.311,1.311h36.9a4.166,4.166,0,0,1,4.167,4.165v37.254a4.166,4.166,0,0,1-4.167,4.165H1239.49a4.165,4.165,0,0,1-4.165-4.165Z" transform="translate(42.904 9.361)" fill="#ffdbdb"></path>
    </g>
    
<circle id="Ellipse_95" data-name="Ellipse 95" cx="22.5" cy="22.5" r="22.5" transform="translate(1068 1021)" fill="#ffdbdb"></circle>
  </g>
</svg>