<svg xmlns="http://www.w3.org/2000/svg" width="15.66" height="19.844" viewBox="0 0 15.66 19.844">
  
<g id="Group_207" data-name="Group 207" transform="translate(-86.121 -344)">
    
<path id="Path_250" data-name="Path 250" d="M86.747,362.9V350.134a.916.916,0,0,1,.916-.916H95.23a.917.917,0,0,1,.916.916h0V362.9a.27.27,0,0,1-.446.206l-4.012-3.415a.373.373,0,0,0-.484,0L87.193,363.1a.272.272,0,0,1-.382-.032A.267.267,0,0,1,86.747,362.9Z" fill="none" stroke="#000000" stroke-miterlimit="10" stroke-width="1.25"></path>
    
<circle id="Ellipse_88" data-name="Ellipse 88" cx="5.01" cy="5.01" r="5.01" transform="translate(91.135 344.625)" fill="#fff" stroke="#000000" stroke-miterlimit="10" stroke-width="1.25"></circle>
    
<g id="Group_206" data-name="Group 206">
      
<line id="Line_26" data-name="Line 26" y2="4.399" transform="translate(96.146 347.307)" fill="none" stroke="#000000" stroke-linecap="round" stroke-miterlimit="10" stroke-width="1.25"></line>
      
<line id="Line_27" data-name="Line 27" x1="4.399" transform="translate(93.946 349.506)" fill="none" stroke="#000000" stroke-linecap="round" stroke-miterlimit="10" stroke-width="1.25"></line>
    </g>
  </g>
</svg>