<svg xmlns="http://www.w3.org/2000/svg" width="17.006" height="16.995" viewBox="0 0 17.006 16.995"><defs><style>.a{fill:#6e6e6e;}</style></defs><g transform="translate(-0.005 -0.005)"><g transform="translate(0.005 0.005)"><path class="a" d="M11.19,16.971V10.6h2.744V7.754h-2.74c0-.178-.036-.281-.04-.4-.028-1.447.032-1.507,1.447-1.507h1.313V3.064c-1.38.059-2.839-.372-4.081.692a4.415,4.415,0,0,0-1.321,3.99H6.46v2.839H8.473c0,.249.032.419.032.593v5.793c-2.04,0-4.029.075-6.007-.028a2.736,2.736,0,0,1-2.468-2.7Q-.021,8.5.031,2.771A2.812,2.812,0,0,1,2.771.031q5.742-.051,11.468,0a2.812,2.812,0,0,1,2.744,2.74q.055,5.738,0,11.468a2.8,2.8,0,0,1-2.464,2.709C13.448,17.05,12.321,16.971,11.19,16.971Z" transform="translate(-0.005 -0.005)"></path></g></g></svg>