<svg xmlns="http://www.w3.org/2000/svg" width="32" height="32" viewBox="0 0 32 32"><g transform="translate(-1528 -152)"><g transform="translate(3154 3071)"><rect fill="none" width="32" height="32" transform="translate(-1626 -2919)"></rect></g><g transform="translate(1535 159)"><rect fill="none" width="18" height="18"></rect><path fill="#000000" d="M9,1A8.015,8.015,0,0,0,2.322,4.614L.5,3.76a.345.345,0,0,0-.266-.014.35.35,0,0,0-.213.447v0l1.5,4.153a.25.25,0,0,0,.295.138l4.155-1.5a.35.35,0,0,0,.211-.448v0a.343.343,0,0,0-.181-.2l-1.839-.86a5.986,5.986,0,1,1-.081,6.959,1,1,0,1,0-1.637,1.15A8,8,0,1,0,9,1Z"></path></g></g></svg>