<svg xmlns="http://www.w3.org/2000/svg" width="16.771" height="27.886" viewBox="0 0 16.771 27.886">
  
<g id="Group_49" data-name="Group 49" transform="translate(0.75 0.75)">
    
<path id="Path_78" data-name="Path 78" d="M320.271,170v8.379a.312.312,0,0,1-.045.162,36.534,36.534,0,0,0-2.827,5.52,17.28,17.28,0,0,0-.839,5.357.311.311,0,0,1-.312.313h-7.162a.232.232,0,0,1-.233-.226,21.572,21.572,0,0,0-.828-5.444,33.019,33.019,0,0,0-2.974-5.518.31.31,0,0,1-.05-.169V170Z" transform="translate(-305 -170)" fill="none" stroke="#000000" stroke-linecap="round" stroke-linejoin="round" stroke-miterlimit="10" stroke-width="1.5"></path>
    
<path id="Path_79" data-name="Path 79" d="M335.011,300.5v6.351a.3.3,0,0,0,.415.271l5.407-2.375a.626.626,0,0,0,.374-.573V300.5Z" transform="translate(-330.474 -280.769)" fill="none" stroke="#000000" stroke-linecap="round" stroke-linejoin="round" stroke-miterlimit="10" stroke-width="1.5"></path>
  </g>
</svg>