<svg xmlns="http://www.w3.org/2000/svg" width="38.781" height="38.775" viewBox="0 0 38.781 38.775">
  
<g id="Group_193" data-name="Group 193" transform="translate(-185.58 -176.155)">
    
<path id="Path_220" data-name="Path 220" d="M198.236,178.038a10.736,10.736,0,1,1-10.777,10.234A10.7,10.7,0,0,1,198.236,178.038Zm-.074,19.316a8.583,8.583,0,1,0-8.539-8.7A8.573,8.573,0,0,0,198.163,197.355Z" transform="translate(6.758 6.787)" fill="#000000"></path>
    
<rect id="Rectangle_234" data-name="Rectangle 234" width="1.897" height="6.594" rx="0.949" transform="translate(204.032 176.156)" fill="#000000"></rect>
    
<rect id="Rectangle_235" data-name="Rectangle 235" width="6.603" height="1.904" rx="0.952" transform="translate(185.58 194.613)" fill="#000000"></rect>
    
<rect id="Rectangle_236" data-name="Rectangle 236" width="6.592" height="1.889" rx="0.944" transform="translate(217.769 194.622)" fill="#000000"></rect>
    
<rect id="Rectangle_237" data-name="Rectangle 237" width="1.897" height="6.599" rx="0.949" transform="translate(204.037 208.332)" fill="#000000"></rect>
    
<rect id="Rectangle_238" data-name="Rectangle 238" width="1.782" height="6.556" rx="0.891" transform="translate(190.664 182.485) rotate(-45.047)" fill="#000000"></rect>
    
<path id="Path_221" data-name="Path 221" d="M191.96,182.231h0a.9.9,0,0,1,0-1.271l3.367-3.367a.9.9,0,0,1,1.276,0h0a.9.9,0,0,1,0,1.276l-3.362,3.362A.906.906,0,0,1,191.96,182.231Z" transform="translate(22.057 4.229)" fill="#000000"></path>
    
<path id="Path_222" data-name="Path 222" d="M187.024,187.136h0a.891.891,0,0,1,0-1.267l3.335-3.33a.9.9,0,0,1,1.271,0h0a.9.9,0,0,1,0,1.262l-3.335,3.335A.9.9,0,0,1,187.024,187.136Z" transform="translate(4.245 22.067)" fill="#000000"></path>
    
<path id="Path_223" data-name="Path 223" d="M196.591,187.173h0a.887.887,0,0,1-1.253,0l-3.381-3.376a.888.888,0,0,1,0-1.257h0a.887.887,0,0,1,1.253,0l3.376,3.376A.888.888,0,0,1,196.591,187.173Z" transform="translate(22.064 22.085)" fill="#000000"></path>
    
<path id="Path_224" data-name="Path 224" d="M196.464,195.672a8.584,8.584,0,1,1,8.613-8.511A8.593,8.593,0,0,1,196.464,195.672Z" transform="translate(8.456 8.47)" fill="#000000"></path>
  </g>
</svg>