<svg xmlns="http://www.w3.org/2000/svg" width="25.101" height="24.704" viewBox="0 0 25.101 24.704">
  
<g id="Group_20" data-name="Group 20" transform="translate(0.75 0.75)">
    
<path id="Path_81" data-name="Path 81" d="M845.738,408.811H824.491a1.177,1.177,0,0,0-1.177,1.177v8.543a1.177,1.177,0,0,0,1.177,1.177h3.434v-4.95h14.463v4.95h3.349a1.177,1.177,0,0,0,1.177-1.177v-8.543A1.177,1.177,0,0,0,845.738,408.811Z" transform="translate(-823.314 -400.787)" fill="none" stroke="#000000" stroke-miterlimit="10" stroke-width="1.5"></path>
    
<path id="Rectangle_52" data-name="Rectangle 52" d="M2.33,0h9.8a2.33,2.33,0,0,1,2.33,2.33V8.024a0,0,0,0,1,0,0H0a0,0,0,0,1,0,0V2.33A2.33,2.33,0,0,1,2.33,0Z" transform="translate(4.611 0)" fill="none" stroke="#000000" stroke-miterlimit="10" stroke-width="1.5"></path>
    
<path id="Path_82" data-name="Path 82" d="M835.105,436.674v3.539a.72.72,0,0,0,.691.745h13.081a.719.719,0,0,0,.691-.745v-3.539" transform="translate(-830.494 -417.754)" fill="none" stroke="#000000" stroke-miterlimit="10" stroke-width="1.5"></path>
  </g>
</svg>